<?xml version="1.0" encoding="UTF-8" standalone="no"?>
<svg
   width="119.79899"
   height="27.368883"
   viewBox="0 0 119.79899 27.368883"
   fill="none"
   version="1.1"
   id="svg7"
   sodipodi:docname="xSigners-logo.svg"
   inkscape:version="1.3.1 (9b9bdc1480, 2023-11-25, custom)"
   xmlns:inkscape="http://www.inkscape.org/namespaces/inkscape"
   xmlns:sodipodi="http://sodipodi.sourceforge.net/DTD/sodipodi-0.dtd"
   xmlns="http://www.w3.org/2000/svg"
   xmlns:svg="http://www.w3.org/2000/svg">
  <sodipodi:namedview
     id="namedview7"
     pagecolor="#505050"
     bordercolor="#eeeeee"
     borderopacity="1"
     inkscape:showpageshadow="0"
     inkscape:pageopacity="0"
     inkscape:pagecheckerboard="0"
     inkscape:deskcolor="#d1d1d1"
     showgrid="false"
     inkscape:zoom="3.5731707"
     inkscape:cx="104.10921"
     inkscape:cy="16.651877"
     inkscape:window-width="1366"
     inkscape:window-height="699"
     inkscape:window-x="0"
     inkscape:window-y="143"
     inkscape:window-maximized="1"
     inkscape:current-layer="svg7" />
  <path
     d="m 37.179146,21.253982 c -0.776333,0 -1.520624,-0.09604 -2.232871,-0.288113 -0.704306,-0.200109 -1.340554,-0.488221 -1.908746,-0.864337 -0.56819,-0.38415 -1.044407,-0.852333 -1.428557,-1.404548 -0.376115,-0.560249 -0.628214,-1.204439 -0.756295,-1.932755 h 1.056413 c 0.176099,0.784276 0.520171,1.440563 1.032402,1.968769 0.520172,0.528206 1.148479,0.92436 1.884736,1.188463 0.736257,0.264104 1.520624,0.396155 2.352918,0.396155 0.992418,0 1.864696,-0.148026 2.617021,-0.444173 0.752325,-0.304088 1.340554,-0.720281 1.764689,-1.248487 0.432169,-0.528206 0.648253,-1.132411 0.648253,-1.812708 0,-0.616209 -0.108043,-1.164454 -0.324127,-1.644641 C 41.668898,14.687419 41.332766,14.27926 40.876588,13.943129 40.428445,13.606998 39.840215,13.346866 39.1119,13.162825 L 35.318419,12.20245 C 34.061898,11.882294 33.093583,11.402107 32.413286,10.761888 31.73299,10.113635 31.392888,9.273307 31.392888,8.240904 c 0,-0.9123559 0.236123,-1.728674 0.708277,-2.4489554 0.472153,-0.7283146 1.13241,-1.3004763 1.980772,-1.7166702 0.856304,-0.4241341 1.856755,-0.6362481 3.001172,-0.6362481 1.288471,0 2.360951,0.2400941 3.217255,0.7202814 0.864337,0.4721533 1.51259,1.0764503 1.944759,1.8127069 0.440202,0.7362565 0.656287,1.4925521 0.648253,2.2688854 H 41.836964 C 41.74896,7.2805298 41.464818,6.5242342 40.984631,5.9720186 40.512477,5.4117697 39.928219,5.0156149 39.231947,4.7835548 38.543709,4.5434616 37.815394,4.423415 37.047095,4.423415 c -0.512232,0 -1.040437,0.076002 -1.584619,0.228089 -0.544182,0.1440558 -1.048378,0.3721449 -1.51259,0.6842665 -0.464212,0.3040883 -0.840328,0.6962722 -1.128441,1.1764595 -0.288112,0.4721533 -0.432168,1.0404362 -0.432168,1.704665 0,0.74429 0.260132,1.352559 0.780304,1.824712 0.520173,0.472153 1.444533,0.884376 2.773082,1.236482 l 3.63742,0.960375 c 0.672262,0.1761 1.240453,0.420163 1.704665,0.732286 0.464212,0.304087 0.836357,0.656286 1.116436,1.056412 0.288112,0.400125 0.496162,0.832294 0.624244,1.296505 0.12808,0.464212 0.192074,0.9444 0.192074,1.440562 0,0.816319 -0.224118,1.564581 -0.672263,2.244877 -0.448143,0.680296 -1.120406,1.224477 -2.016786,1.632637 -0.888347,0.408159 -2.004782,0.612239 -3.349307,0.612239 z M 47.426806,8.601045 v 12.412843 h -0.94837 V 8.601045 Z m 0.08403,-4.9219206 v 1.440562 H 46.370394 V 3.6791244 Z M 55.808938,25.11949 c -1.688689,0 -3.04919,-0.284142 -4.081593,-0.852333 -1.024461,-0.56819 -1.536599,-1.444533 -1.536599,-2.629025 0,-0.472154 0.09604,-0.880313 0.288112,-1.224478 0.200017,-0.344166 0.43614,-0.636248 0.708277,-0.876342 0.280078,-0.248128 0.54021,-0.448145 0.780304,-0.600234 0.248036,-0.152091 0.416101,-0.268075 0.504197,-0.348136 -0.15209,-0.09604 -0.308151,-0.196046 -0.468182,-0.300117 -0.160124,-0.104072 -0.296147,-0.23206 -0.408159,-0.38415 -0.104072,-0.160032 -0.156062,-0.364112 -0.156062,-0.612239 0,-0.336132 0.156062,-0.644282 0.468183,-0.924361 0.320064,-0.280078 0.780305,-0.508167 1.380539,-0.684267 -0.640311,-0.352107 -1.156513,-0.808285 -1.548605,-1.368534 -0.392184,-0.560249 -0.588229,-1.208502 -0.588229,-1.944759 0,-0.792308 0.176007,-1.48461 0.528206,-2.07681 0.360141,-0.600234 0.904322,-1.064446 1.632637,-1.392543 0.728222,-0.328097 1.648613,-0.492192 2.761077,-0.492192 0.7683,0 1.428558,0.09604 1.980774,0.288113 0.552215,0.192074 1.068416,0.488221 1.548603,0.888346 0.07997,-0.03998 0.244065,-0.112013 0.492193,-0.216084 0.256069,-0.112014 0.54021,-0.23206 0.852332,-0.360141 0.312122,-0.136022 0.592201,-0.256069 0.840328,-0.360141 0.256069,-0.112012 0.424135,-0.184041 0.504197,-0.216084 v 1.392543 l -2.208862,0.480188 c 0.168065,0.296146 0.300117,0.624244 0.396155,0.984384 0.103979,0.360141 0.15606,0.720281 0.15606,1.080421 0,0.744291 -0.172129,1.400578 -0.516201,1.968768 -0.336131,0.56025 -0.856395,0.996389 -1.560609,1.308511 -0.696271,0.312121 -1.580647,0.468183 -2.653035,0.468183 -0.04802,0 -0.09207,0 -0.132051,0 -0.04008,0 -0.08403,0 -0.132052,0 -1.232512,0.02401 -2.076811,0.156061 -2.532988,0.396154 -0.456178,0.240094 -0.684267,0.492192 -0.684267,0.756296 0,0.264103 0.18007,0.456178 0.54021,0.576224 0.360141,0.120047 1.036374,0.216084 2.028792,0.288113 0.360141,0.02401 0.772271,0.04802 1.236482,0.07203 0.46412,0.02401 0.988355,0.05605 1.572614,0.09604 1.080422,0.05605 1.94873,0.348135 2.605016,0.876341 0.664229,0.520172 0.996389,1.284501 0.996389,2.292895 0,1.088455 -0.456178,1.968768 -1.368534,2.641031 -0.912356,0.672262 -2.320967,1.008393 -4.225649,1.008393 z m 0.216085,-0.888347 c 1.320515,0 2.380898,-0.228089 3.181241,-0.684267 0.808284,-0.448144 1.212473,-1.140445 1.212473,-2.07681 0,-0.61621 -0.216084,-1.12447 -0.648253,-1.524595 -0.424227,-0.400125 -1.088455,-0.628214 -1.992778,-0.684267 l -4.129611,-0.264103 c -0.248128,-0.01598 -0.568283,0.08403 -0.960374,0.300117 -0.392184,0.20805 -0.744291,0.508168 -1.056413,0.900352 -0.30418,0.38415 -0.456177,0.832294 -0.456177,1.344524 0,0.800343 0.396154,1.448596 1.188463,1.944759 0.792309,0.496163 2.012724,0.74429 3.661429,0.74429 z m -0.09604,-9.003513 c 1.128441,0 2.036733,-0.236122 2.725064,-0.708277 0.696271,-0.472153 1.044407,-1.204438 1.044407,-2.196856 0,-1.032403 -0.348136,-1.792668 -1.044407,-2.28089 -0.688331,-0.496163 -1.596623,-0.744291 -2.725064,-0.744291 -1.152449,0 -2.080873,0.248128 -2.785087,0.744291 -0.704305,0.496163 -1.056412,1.256521 -1.056412,2.28089 0,0.944398 0.332069,1.66468 0.996389,2.160842 0.664228,0.496164 1.612599,0.744291 2.84511,0.744291 z m 8.937672,5.786258 V 8.601045 h 0.864337 v 1.848721 c 0.216087,-0.392184 0.520175,-0.74429 0.912359,-1.056412 0.400125,-0.320156 0.876342,-0.572254 1.428557,-0.756296 0.552215,-0.18404 1.160391,-0.276107 1.824712,-0.276107 0.816318,0 1.552575,0.164095 2.208862,0.492192 0.664228,0.328097 1.188464,0.832294 1.572614,1.512591 0.38415,0.680296 0.576225,1.548603 0.576225,2.605016 v 8.043138 H 73.317955 V 12.97075 c 0,-1.264463 -0.308151,-2.196857 -0.92436,-2.797091 -0.608268,-0.600235 -1.440562,-0.900352 -2.496975,-0.900352 -0.728315,0 -1.404548,0.112013 -2.028791,0.336131 -0.624244,0.224118 -1.12447,0.564221 -1.500586,1.020398 -0.376208,0.456178 -0.56422,1.036374 -0.56422,1.740679 v 8.643373 z m 12.810106,-5.978333 c 0,0.936365 0.156061,1.808737 0.468184,2.617021 0.312121,0.800343 0.800342,1.448596 1.464571,1.944759 0.664228,0.496163 1.520624,0.74429 2.569002,0.74429 0.984384,0 1.824712,-0.236123 2.520984,-0.708276 0.696272,-0.472153 1.116436,-1.116435 1.260491,-1.932754 h 1.020399 c -0.160032,0.800344 -0.480187,1.464572 -0.960375,1.992777 -0.480188,0.528207 -1.056412,0.920391 -1.728675,1.17646 -0.664228,0.256069 -1.368533,0.38415 -2.112824,0.38415 -1.088455,0 -2.04883,-0.244065 -2.881124,-0.732287 -0.824353,-0.496162 -1.472606,-1.216443 -1.944759,-2.160842 -0.464211,-0.9444 -0.696272,-2.092786 -0.696272,-3.445345 0,-1.368533 0.208051,-2.541022 0.624244,-3.517371 0.424135,-0.984385 1.036373,-1.73671 1.836716,-2.256881 0.808285,-0.520173 1.780665,-0.780305 2.917139,-0.780305 1.072388,0 1.984744,0.236123 2.737068,0.708277 0.760266,0.472153 1.340554,1.15642 1.740679,2.0528 0.408159,0.888347 0.612239,1.968768 0.612239,3.241265 v 0.672262 z m 0.02401,-0.912356 h 8.427289 c 0,-0.92039 -0.148027,-1.744649 -0.444173,-2.472964 -0.296148,-0.736257 -0.748263,-1.316544 -1.356531,-1.740679 -0.608268,-0.424135 -1.380539,-0.636249 -2.316904,-0.636249 -1.016427,0 -1.84475,0.244065 -2.484969,0.732286 -0.632278,0.480187 -1.096397,1.092426 -1.392544,1.836717 -0.296146,0.74429 -0.440202,1.504556 -0.432169,2.280889 z m 12.068131,6.890689 V 8.601045 h 0.864331 v 1.848721 c 0.216085,-0.560249 0.516202,-0.988355 0.900358,-1.284501 0.392087,-0.304088 0.812254,-0.512231 1.260491,-0.624244 0.448139,-0.120047 0.868305,-0.18007 1.260492,-0.18007 0.24803,0 0.49616,0.02004 0.744289,0.06002 0.248039,0.03205 0.448147,0.09207 0.600234,0.180071 v 0.960374 c -0.168065,-0.08007 -0.392188,-0.136022 -0.672263,-0.168065 -0.272136,-0.03205 -0.496259,-0.04802 -0.672261,-0.04802 -0.296152,0 -0.636252,0.04405 -1.0204,0.132052 -0.37621,0.08007 -0.74429,0.23206 -1.104431,0.456178 -0.352195,0.216084 -0.644282,0.524235 -0.876343,0.92436 -0.232153,0.392184 -0.348138,0.896382 -0.348138,1.512591 v 8.643372 z m 11.675568,0.240094 c -0.86434,0 -1.640946,-0.128081 -2.32891,-0.38415 -0.680574,-0.256069 -1.232785,-0.648253 -1.656925,-1.17646 -0.416193,-0.528205 -0.672261,-1.192433 -0.768296,-1.992777 h 0.996392 c 0.112012,0.528206 0.320059,0.992418 0.624514,1.392543 0.312128,0.392184 0.727674,0.700243 1.248488,0.924361 0.528217,0.216084 1.156147,0.324126 1.884737,0.324126 1.00009,0 1.8044,-0.204079 2.41295,-0.612238 0.61592,-0.416193 0.92435,-1.052442 0.92435,-1.908745 0,-0.576225 -0.14867,-1.036374 -0.44417,-1.380538 -0.29643,-0.352107 -0.7286,-0.608269 -1.2965,-0.768301 l -2.95315,-0.816318 c -0.904974,-0.256069 -1.620637,-0.61621 -2.149124,-1.080421 -0.528204,-0.464212 -0.792311,-1.108403 -0.792311,-1.932754 0,-0.696272 0.152004,-1.30454 0.456177,-1.824713 0.312128,-0.520171 0.780581,-0.92436 1.404829,-1.212473 0.631631,-0.296146 1.428559,-0.444173 2.388929,-0.444173 1.16815,0 2.12021,0.268074 2.85712,0.804314 0.74429,0.53624 1.14414,1.364564 1.20046,2.48497 h -0.99638 c -0.0804,-0.712247 -0.37677,-1.284501 -0.88835,-1.71667 -0.5042,-0.440203 -1.2291,-0.660258 -2.17285,-0.660258 -0.977,0 -1.76469,0.20805 -2.364923,0.624244 -0.600233,0.416193 -0.90035,1.064446 -0.90035,1.944759 0,0.560249 0.192079,1.000358 0.576227,1.320515 0.391539,0.312121 0.93636,0.56422 1.632636,0.756294 l 2.95315,0.816319 c 0.45618,0.128081 0.84033,0.296147 1.15245,0.504197 0.31212,0.20805 0.56422,0.444173 0.7563,0.708276 0.19946,0.264103 0.34352,0.552216 0.43217,0.864337 0.0877,0.312122 0.13204,0.632278 0.13204,0.960375 0,0.696272 -0.15606,1.30454 -0.46818,1.824712 -0.31212,0.520172 -0.78861,0.928331 -1.42855,1.224478 -0.63256,0.288112 -1.44057,0.432169 -2.42495,0.432169 z"
     fill="#ffffff"
     id="path1"
     style="stroke-width:0.923436" />
  <path
     d="M 12.506343,3.2507414 25.97776,21.013888 9.2025245,3.2507414 Z"
     fill="url(#paint0_linear_156_6366)"
     id="path2"
     style="fill:url(#paint0_linear_156_6366);stroke-width:0.923436" />
  <path
     d="M 9.9654683,21.013888 H 6.3889977 L 27.609474,2.4161114 Z"
     fill="url(#paint1_linear_156_6366)"
     id="path3"
     style="fill:url(#paint1_linear_156_6366);stroke-width:0.923436" />
  <defs
     id="defs7">
    <linearGradient
       id="paint0_linear_156_6366"
       x1="23.5179"
       y1="28.7999"
       x2="8.8673697"
       y2="8.8336601"
       gradientUnits="userSpaceOnUse"
       gradientTransform="matrix(0.92343723,0,0,0.92343723,5.7357379,-6.6892296)">
      <stop
         stop-color="white"
         id="stop3" />
      <stop
         offset="1"
         stop-color="#FFE873"
         id="stop4" />
      <stop
         offset="1"
         stop-color="#FFE873"
         id="stop5" />
    </linearGradient>
    <linearGradient
       id="paint1_linear_156_6366"
       x1="23.6873"
       y1="5.5865202"
       x2="-1.80595"
       y2="25.828899"
       gradientUnits="userSpaceOnUse"
       gradientTransform="matrix(0.92343723,0,0,0.92343723,5.7357379,-6.6892296)">
      <stop
         stop-color="white"
         id="stop6" />
      <stop
         offset="1"
         stop-color="#FFE873"
         id="stop7" />
    </linearGradient>
  </defs>
</svg>
